<?xml version="1.0" encoding="UTF-8" standalone="no"?>

<svg
   xmlns:svg="http://www.w3.org/2000/svg"
   xmlns="http://www.w3.org/2000/svg"
   version="1.1"
   width="500"
   height="225"
 
   id="samplebuttonsvg">

   <style>
    rect.btn {
      stroke:#fff;
      fill:#fff;
      fill-opacity:0;
      stroke-opacity:0;
    }
   </style>

  <script type="text/ecmascript"><![CDATA[
  	var svgNS = "http://www.w3.org/2000/svg";

	function initPlay(evt)
	{
  /*
		if ( window.svgDocument == null )
		{
			svgDocument = evt.target.ownerDocument;
		}*/
    svgDocument = document.querySelector('#samplebuttonsvg').ownerDocument;
    console.log(svgDocument);

		addRotateTransform('gear-3', 10, -1);
		addRotateTransform('gear-4', 10, -1);
	}

	function addRotateTransform(target_id, speed, direction)
	{
		var element_to_rotate = svgDocument.getElementById(target_id);
		var my_transform = svgDocument.createElementNS(svgNS, "animateTransform");

		var bb = element_to_rotate.getBBox();
    var cx = bb.x + bb.width/2;
    var cy = bb.y + bb.height/2;

		my_transform.setAttributeNS(null, "attributeName", "transform");
		my_transform.setAttributeNS(null, "attributeType", "XML");
		my_transform.setAttributeNS(null, "type", "rotate");
		my_transform.setAttributeNS(null, "dur", speed + "s");
		my_transform.setAttributeNS(null, "repeatCount", "indefinite");
		my_transform.setAttributeNS(null, "from", "0 "+cx+" "+cy);
		my_transform.setAttributeNS(null, "to", 360*direction+" "+cx+" "+cy);

		element_to_rotate.appendChild(my_transform);
		my_transform.beginElement();
	}
  ]]></script>

<g>
    <g fill="#000">
      <path
        id = "gear-3" 
        d="M26.3206 22.814l-.0566 53.6547C42.3867 67.5415 58.5098 58.615 74.6334 49.689 58.529 40.731 42.4247 31.7723 26.3206 22.814zm2.8267 4.4568c13.6557 7.5964 27.3113 15.193 40.9672 22.789-13.672 7.5688-27.3438 15.138-41.0152 22.708l.048-45.497zM54.0796 47.685L43.3864 28.221zm.0364 11.1932l-26.0553 13.393z"/>
    </g>    
    <g fill="#000">
      <path 
        id = "gear-4" 
        d="M72.5386 72.3394l-10.7303-9.4642zM31.87 31.9894c16.104 8.9585 32.2082 17.917 48.3127 26.875-16.1235 8.926-32.2467 17.8525-48.3694 26.7798.019-17.885.0378-35.77.0566-53.6548z"/>
    </g>
    <text y="37.644" x="111.3147" style="line-height:214.99998569%;-inkscape-font-specification:'Helvetica Neue'" transform="matrix(1.00415 0 0 .99587 0 38.976)" font-size="60.1377" font-family="Helvetica Neue" letter-spacing="0" word-spacing="-10.2522">
     <tspan dx="4.3315" dy=".8214" style="line-height:226.00002289%;-inkscape-font-specification:'Helvetica Neue'" y="37.644" x="111.3147" letter-spacing=".0008" fill="#000">P L A Y</tspan>
    </text>
    <rect class="btn" x="0" y="0" width="500" height="225" onclick="initPlay()" />
</g>
</svg>
