<svg xmlns="http://www.w3.org/2000/svg" width="74" height="21" viewBox="0 0 263.4 74.5"><style>.a{fill:#fff;stroke-width:40;}</style><g transform="translate(-21.848444 -20.813745)matrix(0.66539689 0 0 0.66539689 -75.203286 -77.667854)"><g transform="matrix(0.92081533 0 0 0.92081533 23.689493 23.872115)matrix(0.9681854 0 0 0.93065069 10.904712 20.419915)"><path d="m125.9 122.9c0 31.4-0.1 62.7-0.1 94.1 27.2-15.7 54.4-31.3 81.5-47-27.1-15.7-54.3-31.4-81.4-47.1zm4.8 7.8c23 13.3 46 26.6 69.1 40-23 13.3-46.1 26.5-69.1 39.8 0-26.6 0.1-53.2 0.1-79.8zm42 97.2 38.6 0-38.6 0zm2.8 9.6 45.5 0-45.5 0z" class="a"/><path d="m230.3 253.6-45.5 0zM135.2 139c27.1 15.7 54.3 31.4 81.4 47.1-27.2 15.7-54.4 31.3-81.5 47 0-31.4 0.1-62.7 0.1-94.1z" class="a"/></g><text transform="scale(0.97933266 1.0211035)" y="225.7" x="258.2" style="-inkscape-font-specification:'Helvetica Neue';font-family:'Helvetica Neue';font-size:90px;letter-spacing:0px;line-height:200%;stroke-width:1px;word-spacing:0.02px"><tspan dx="6.2426939" dy="1.1838479" y="225.7" x="258.2" style="-inkscape-font-specification:'Helvetica Neue';fill:#fff;font-family:'Helvetica Neue';letter-spacing:0.001px;line-height:200%;word-spacing:0.001px">  P L A Y</tspan></text></g></svg>