<svg 
    xmlns="http://www.w3.org/2000/svg" 
    width="281009.023" 
    height="79493.8696" 
    viewBox="0 0 263.44596 74.525502"
    onload="init(evt)">
  
  <script type="text/ecmascript"><![CDATA[
    var svgNS = "http://www.w3.org/2000/svg";

    function init(evt)
    {
        if ( window.svgDocument == null )
        {
            svgDocument = evt.target.ownerDocument;
        }
        addRotateTransform('triangle1', 12, 1);
        addRotateTransform('triangle2', 16, -1);
    }

    function addRotateTransform(target_id, speed, direction)
    {
        var element_to_rotate = svgDocument.getElementById(target_id);
        var my_transform = svgDocument.createElementNS(svgNS, "animateTransform");

        var bb = element_to_rotate.getBBox();
        var cx = bb.x + bb.width/2;
        var cy = bb.y + bb.height/2;

        my_transform.setAttributeNS(null, "attributeName", "transform");
        my_transform.setAttributeNS(null, "attributeType", "XML");
        my_transform.setAttributeNS(null, "type", "rotate");
        my_transform.setAttributeNS(null, "dur", speed + "s");
        my_transform.setAttributeNS(null, "repeatCount", "indefinite");
        my_transform.setAttributeNS(null, "from", "0 "+cx+" "+cy);
        my_transform.setAttributeNS(null, "to", 360*direction+" "+cx+" "+cy);

        element_to_rotate.appendChild(my_transform);
        my_transform.beginElement();
    }
  ]]></script>
  
  <g fill="#fff">
    <path 
        id="triangle1"
        d="M.0566 0C.0378 17.885.019 35.7698 0 53.6547 16.1228 44.7275 32.246 35.801 48.3694 26.875 32.265 17.917 16.1607 8.9583.0566 0zm2.8267 4.4568c13.6557 7.5964 27.3113 15.193 40.9673 22.789-13.672 7.5688-27.3438 15.1382-41.0153 22.708l.048-45.497zM27.8156 59.871h22.8782-22.8782zm1.6436 5.479h26.9804-26.9804z"/>
    <path 
        id="triangle2"
        d="M61.989 74.5255H35.0085zM5.606 9.1755c16.104 8.9584 32.2082 17.917 48.3127 26.875C37.7952 44.9764 21.672 53.903 5.5493 62.83c.019-17.885.038-35.7698.0566-53.6547z"/>

  </g>
  <text transform="matrix(.65164 0 0 .67944 -97.052 -98.482)" y="225.6865" x="258.2043" style="line-height:214.99998569%;-inkscape-font-specification:'Helvetica Neue'" font-size="86.6728" font-family="Helvetica Neue" letter-spacing="0" word-spacing=".0156">
    <tspan dx="6.2427" dy="1.1838" style="line-height:226.00002289%;-inkscape-font-specification:'Helvetica Neue'" y="225.6865" x="258.2043" letter-spacing=".0012" word-spacing=".0012" fill="#fff">P L A Y</tspan>
  </text>
</svg>
