<?xml version="1.0" encoding="UTF-8" standalone="no"?>
<!-- Created with Inkscape (http://www.inkscape.org/) -->

<svg
   xmlns:dc="http://purl.org/dc/elements/1.1/"
   xmlns:cc="http://creativecommons.org/ns#"
   xmlns:rdf="http://www.w3.org/1999/02/22-rdf-syntax-ns#"
   xmlns:svg="http://www.w3.org/2000/svg"
   xmlns="http://www.w3.org/2000/svg"
   xmlns:sodipodi="http://sodipodi.sourceforge.net/DTD/sodipodi-0.dtd"
   xmlns:inkscape="http://www.inkscape.org/namespaces/inkscape"
   width="900mm"
   height="900mm"
   viewBox="0 0 3188.9764 3188.9764"
   id="svg2"
   version="1.1"
   inkscape:version="0.91 r13725"
   sodipodi:docname="tickloho2.svg">
  <defs
     id="defs4" />
  <sodipodi:namedview
     id="base"
     pagecolor="#473c52"
     bordercolor="#666666"
     borderopacity="1.0"
     inkscape:pageopacity="1"
     inkscape:pageshadow="2"
     inkscape:zoom="0.11763904"
     inkscape:cx="1022.1408"
     inkscape:cy="891.28315"
     inkscape:document-units="px"
     inkscape:current-layer="layer1"
     showgrid="false"
     showguides="false"
     inkscape:window-width="1280"
     inkscape:window-height="694"
     inkscape:window-x="0"
     inkscape:window-y="1"
     inkscape:window-maximized="1" />
  <metadata
     id="metadata7">
    <rdf:RDF>
      <cc:Work
         rdf:about="">
        <dc:format>image/svg+xml</dc:format>
        <dc:type
           rdf:resource="http://purl.org/dc/dcmitype/StillImage" />
        <dc:title></dc:title>
      </cc:Work>
    </rdf:RDF>
  </metadata>
  <g
     inkscape:label="Layer 1"
     inkscape:groupmode="layer"
     id="layer1"
     transform="translate(0,2136.6142)">
    <rect
       style="fill:#1a1a1a;fill-opacity:1;stroke:none;stroke-width:37.79999924;stroke-miterlimit:4;stroke-dasharray:none;stroke-opacity:1"
       id="rect4143"
       width="3446.5747"
       height="2370.571"
       x="-194.88499"
       y="-1433.7257" />
    <path
       style="fill:#a0a0a0;stroke:none;stroke-width:1px;stroke-linecap:butt;stroke-linejoin:miter;stroke-opacity:1"
       d=""
       id="path5938"
       inkscape:connector-curvature="0" />
    <path
       style="fill:#a0a0a0;stroke:none;stroke-width:1px;stroke-linecap:butt;stroke-linejoin:miter;stroke-opacity:1"
       d=""
       id="path5940"
       inkscape:connector-curvature="0" />
    <path
       style="fill:#a0a0a0;stroke:none;stroke-width:1px;stroke-linecap:butt;stroke-linejoin:miter;stroke-opacity:1"
       d=""
       id="path5942"
       inkscape:connector-curvature="0" />
    <path
       style="fill:#a0a0a0;stroke:none;stroke-width:1px;stroke-linecap:butt;stroke-linejoin:miter;stroke-opacity:1"
       d=""
       id="path5944"
       inkscape:connector-curvature="0" />
    <path
       style="fill:#a0a0a0;stroke:none;stroke-width:1px;stroke-linecap:butt;stroke-linejoin:miter;stroke-opacity:1"
       d=""
       id="path5946"
       inkscape:connector-curvature="0" />
    <path
       style="fill:#a0a0a0;stroke:none;stroke-width:1px;stroke-linecap:butt;stroke-linejoin:miter;stroke-opacity:1"
       d=""
       id="path5948"
       inkscape:connector-curvature="0" />
    <g
       id="g4145"
       transform="matrix(3.2063752,0,0,3.2063752,2394.2494,-1697.6703)">
      <path
         style="fill:#ffffff;fill-opacity:1;stroke:none;stroke-width:5;stroke-miterlimit:4;stroke-dasharray:none;stroke-opacity:1"
         d="M 121.60547,412.72434 C 110.02093,392.4775 83.32529,386.02112 61.88876,391.91177 c -31.274464,5.64482 -63.1792038,8.68838 -93.965897,16.49921 -5.896117,-2.38385 -12.123311,1.70017 -18.191199,1.64302 -135.559734,22.20804 -271.423434,42.7204 -406.732994,66.42393 -20.9163,5.50169 -38.46451,27.41417 -33.2251,49.56036 3.10322,20.6567 6.69228,41.23534 9.94037,61.86948 21.20793,-4.20944 45.84302,-7.96566 64.65775,5.45473 19.28322,17.4366 21.92425,46.12793 17.41015,70.39538 -5.81739,21.87833 -27.60597,36.00328 -49.28589,38.20275 -4.88078,0.90477 -9.79535,1.60664 -14.69403,2.40608 7.5644,23.98429 3.71129,51.45805 17.47366,73.41939 14.10511,17.12478 39.1716,20.05061 59.47252,14.39908 136.2403,-22.11334 272.59848,-43.51256 408.729571,-66.32343 6.933039,0.2052 14.675214,-2.84436 21.902718,-3.3611 28.019212,-4.76453 56.702321,-7.22354 84.174941,-14.95646 24.19076,-8.1105 37.13815,-36.46752 32.46395,-60.68984 -4.13893,-16.37658 -5.78763,-33.28537 -8.83301,-49.90368 -21.2878,4.16584 -46.06221,8.02435 -64.834417,-5.71697 -18.723288,-17.11129 -21.894998,-45.01114 -17.015703,-68.71898 6.235676,-20.39088 27.4432,-31.79104 47.44286,-34.36825 5.57763,-1.10347 11.2075,-1.91028 16.82286,-2.79239 -5.82428,-23.90794 -5.86403,-49.1932 -13.9964,-72.62974 z m -9.94689,6.94032 c 0.81563,1.80174 1.40034,3.71158 1.7232,5.71254 l 8.08126,50.08525 c -54.52326,8.79767 -69.490504,40.16004 -62.892254,81.0525 6.598217,40.89236 30.213047,63.12701 84.736294,54.32934 l 7.28782,45.14726 c 2.58295,16.00765 -11.27043,39.43406 -32.61389,42.87796 l -94.095266,15.18174 c 2.880131,-0.46474 4.824262,-3.15677 4.359518,-6.03691 l -4.43958,-27.50949 c -0.464733,-2.88014 -3.156796,-4.82426 -6.036925,-4.35951 l -10.260418,1.6547 c -2.880161,0.46466 -4.8277775,3.15844 -4.3630537,6.03858 l 4.4395777,27.50947 c 0.464744,2.88014 3.156796,4.82426 6.036926,4.35952 l -410.926609,66.30603 c -21.34322,3.44388 -40.60575,-6.67008 -43.18866,-22.67773 l -7.28432,-45.1489 c 54.52326,-8.79768 68.6953,-45.0972 62.09707,-85.98962 -6.59827,-40.89246 -30.1938,-62.99374 -84.71705,-54.19608 l -8.55963,-53.04653 c -2.58291,-16.00756 12.51967,-31.66646 33.86289,-35.11034 L -34.189866,419.5422 c -2.865814,0.4767 -4.800027,3.16351 -4.336718,6.03492 l 4.438744,27.5077 c 0.464734,2.88014 3.157643,4.82606 6.037763,4.36132 l 10.263938,-1.65643 c 2.88012,-0.46474 4.824265,-3.15673 4.359532,-6.03687 l -4.439592,-27.50951 c -0.463739,-2.87398 -3.146191,-4.81685 -6.019352,-4.36342 l 94.076883,-15.17959 c 18.675551,-3.01335 35.757908,4.35176 41.467248,16.96434 z m -121.670329,52.7184 c -0.998212,-2.01297 -3.217783,-3.2255 -5.557852,-2.84783 l -10.262161,1.65558 c -2.88012,0.46474 -4.825992,3.15767 -4.361299,6.03772 l 4.439588,27.50947 c 0.464724,2.88015 3.156796,4.82426 6.036917,4.35953 l 10.2639545,-1.65637 c 2.8801206,-0.46474 4.8242514,-3.15677 4.3595276,-6.03691 l -4.4378344,-27.51034 c -0.087108,-0.54 -0.2504595,-1.04632 -0.4808407,-1.51085 z m 8.3334997,51.65138 c -0.9982015,-2.01296 -3.2151064,-3.22442 -5.5552266,-2.84685 l -10.2639451,1.65635 c -2.880171,0.46466 -4.82426,3.15679 -4.359527,6.03693 l 4.437821,27.51032 c 0.464724,2.88014 3.156795,4.82425 6.036916,4.35951 l 10.2657236,-1.65719 c 2.8801305,-0.46474 4.8224823,-3.15595 4.3577485,-6.03609 l -4.43781,-27.51031 c -0.087109,-0.53999 -0.2514051,-1.04809 -0.4817004,-1.51267 z m 8.3325853,51.65399 c -0.998201,-2.01296 -3.2124005,-3.22784 -5.5525119,-2.85027 l -10.2657232,1.65719 c -2.8801709,0.46465 -4.8216499,3.15772 -4.3569259,6.03786 l 4.4369896,27.50855 c 0.4647227,2.88014 3.1576271,4.82602 6.0377476,4.36128 L 7.216098,610.74751 c 2.880141,-0.46475 4.82601,-3.15761 4.361286,-6.03775 l -4.43781,-27.51031 c -0.08711,-0.54 -0.254887,-1.04658 -0.485238,-1.51102 z m 8.334345,51.65317 c -0.99816,-2.01286 -3.214149,-3.227 -5.554269,-2.84943 l -10.2621872,1.65552 c -2.8801404,0.46475 -4.8259906,3.1576 -4.3612955,6.03775 l 4.4413582,27.50866 c 0.4647326,2.88013 3.1567853,4.82426 6.0369245,4.35951 l 10.26301,-1.65376 c 2.880131,-0.46474 4.825196,-3.15938 4.360463,-6.03952 l -4.441357,-27.50864 c -0.08701,-0.54004 -0.252255,-1.04555 -0.482647,-1.51009 z"
         id="path5832"
         inkscape:connector-curvature="0" />
      <path
         sodipodi:nodetypes="cccccccccccccccccccccccccccccccccccccccccccccccccccccccccccccccccccccc"
         inkscape:connector-curvature="0"
         id="path5828"
         d="m -220.72852,117.58008 c -18.504,0.53984 -31.76838,15.83718 -46.26878,25.51458 -15.53296,11.61092 -31.48436,23.19675 -46.75661,34.82331 6.61502,6.93305 11.05064,15.4455 17.40625,22.53515 3.42081,4.90311 2.06739,12.28274 -3.58593,14.88086 -4.57951,4.22903 -12.09043,9.76275 -17.97266,4.49805 -6.71881,-7.88556 -12.89592,-17.08822 -18.92187,-24.98047 -110.05886,82.05239 -220.75384,163.46354 -330.66407,245.78125 -10.13135,8.9066 -17.67616,25.3824 -9.27502,37.76285 9.9287,13.31927 19.87563,27.22778 29.92737,40.06332 18.41347,-13.26019 42.3231,-23.80231 65.20703,-16.74609 24.76205,8.25718 41.26594,31.15874 51.36523,54.15625 8.60753,21.29683 5.6183,47.13763 -9.23242,64.98047 -5.20239,6.7967 -11.42069,12.76544 -18.12891,18.06055 10.03291,12.48815 18.0768,26.92024 29.52735,37.92968 13.76849,8.53823 31.25708,1.73701 42.56358,-7.91514 22.01287,-16.4862 46.93872,-35.1372 68.5799,-51.71857 -0.0809,-9.47661 -10.37379,-15.85171 -20.04973,-16.87801 -15.70523,-4.07496 -51.18538,2.18376 -51.18538,2.18376 l -7.50065,-30.10651 c -4.13734,-23.59526 -16.87179,-56.96702 -1.23797,-82.31534 11.46618,-22.27955 35.23477,-27.01381 49.8676,-31.37644 34.03722,-5.1628 69.88989,-11.47836 93.22867,-14.25491 21.30495,-3.6693 120.75054,-19.59087 179.75789,-28.78713 -4.17554,-6.01881 -9.99938,-10.43638 -7.09227,-18.73014 2.91173,-5.76985 9.41686,-8.62327 14.66015,-11.71289 8.33363,-1.7894 12.52095,7.49153 16.51758,12.99023 3.48723,4.25663 7.33101,9.74925 10.36719,13.50195 20.02432,-13.61511 38.81291,-28.9764 58.622551,-42.91407 9.374141,-6.88313 19.937102,-14.07291 22.59034,-26.11327 3.903193,-12.72507 0.37596,-27.16369 -9.035692,-36.58453 -6.571728,-8.62839 -13.028053,-18.00479 -19.67134,-26.16938 -18.429279,13.26367 -42.374939,23.77437 -65.259769,16.67188 -24.45065,-8.1899 -41.01287,-30.64659 -50.91601,-53.45899 -7.89248,-20.03215 -3.92188,-43.93214 10.04101,-60.33593 5.70323,-7.33264 12.52996,-13.72531 19.83399,-19.4375 -10.88445,-13.76334 -20.00583,-29.10803 -32.15235,-41.76172 -4.38591,-3.0577 -9.87623,-4.19932 -15.15625,-4.03711 z m -68,99.36914 c 8.64076,0.92014 11.06248,10.77369 16.15625,16.21484 4.03579,5.55455 11.92949,11.78292 8.41797,19.5625 -4.14953,5.12606 -9.85945,9.94894 -16.39258,11.28125 -8.57221,-0.21752 -11.42767,-9.98166 -16.16796,-15.41992 -3.96476,-5.8551 -12.44999,-11.88077 -9.06446,-19.95312 3.23922,-5.57374 9.45643,-8.89303 15.02149,-11.54493 0.66783,-0.11655 1.3522,-0.18567 2.02929,-0.14062 z m 31.18164,42.01367 c 8.65301,0.94399 11.0293,10.72553 16.1504,16.20313 4.03138,5.56857 11.93743,11.78525 8.42578,19.57421 -4.14815,5.12687 -9.85975,9.94211 -16.38868,11.28321 -8.58154,-0.20904 -11.41046,-9.98213 -16.16601,-15.41211 -3.96988,-5.88795 -12.45196,-11.86845 -9.07227,-19.96289 3.23917,-5.57462 9.4584,-8.89205 15.02344,-11.54492 0.66727,-0.116 1.35086,-0.18601 2.02734,-0.14063 z m 31.17969,42.01367 c 8.63942,0.93085 11.06001,10.75005 16.15625,16.20703 4.05543,5.57304 12.18493,12.05862 8.24805,19.79883 -4.14125,5.00924 -9.77471,9.74879 -16.2168,11.05274 -8.56942,-0.21073 -11.40631,-9.95079 -16.15234,-15.38672 -3.96097,-5.9006 -12.46786,-11.88204 -9.08399,-19.98633 3.25196,-5.56803 9.47528,-8.95203 15.06836,-11.55273 0.65198,-0.11225 1.31988,-0.17677 1.98047,-0.13282 z m 31.1836,42.01367 c 8.63503,0.93499 11.066,10.74484 16.15429,16.20704 4.05423,5.55581 12.18473,12.06781 8.24805,19.79687 -4.14103,5.00926 -9.77425,9.747 -16.21484,11.05469 -8.60014,-0.23452 -11.43318,-9.99309 -16.17188,-15.41992 -3.96477,-5.85527 -12.44885,-11.88087 -9.06641,-19.95313 3.23923,-5.57374 9.45644,-8.89302 15.02149,-11.54492 0.66783,-0.11656 1.35221,-0.18568 2.0293,-0.14063 z"
         style="fill:#ffffff;fill-opacity:1;stroke:none;stroke-width:5;stroke-miterlimit:4;stroke-dasharray:none;stroke-opacity:1" />
    </g>
  </g>
</svg>
