<?xml version="1.0" encoding="UTF-8" standalone="no"?>
<!-- Created with Inkscape (http://www.inkscape.org/) -->

<svg
   xmlns:dc="http://purl.org/dc/elements/1.1/"
   xmlns:cc="http://creativecommons.org/ns#"
   xmlns:rdf="http://www.w3.org/1999/02/22-rdf-syntax-ns#"
   xmlns:svg="http://www.w3.org/2000/svg"
   xmlns="http://www.w3.org/2000/svg"
   xmlns:sodipodi="http://sodipodi.sourceforge.net/DTD/sodipodi-0.dtd"
   xmlns:inkscape="http://www.inkscape.org/namespaces/inkscape"
   width="800"
   height="800"
   viewBox="0 0 799.99997 799.99996"
   id="svg2"
   version="1.1"
   inkscape:version="0.91 r13725"
   sodipodi:docname="ticklogo.svg">
  <defs
     id="defs4" />
  <sodipodi:namedview
     id="base"
     pagecolor="#473c52"
     bordercolor="#666666"
     borderopacity="1.0"
     inkscape:pageopacity="1"
     inkscape:pageshadow="2"
     inkscape:zoom="0.38142619"
     inkscape:cx="-85.1054"
     inkscape:cy="466.52004"
     inkscape:document-units="px"
     inkscape:current-layer="g4141"
     showgrid="false"
     showguides="true"
     inkscape:window-width="1280"
     inkscape:window-height="697"
     inkscape:window-x="0"
     inkscape:window-y="1"
     inkscape:window-maximized="1"
     units="px" />
  <metadata
     id="metadata7">
    <rdf:RDF>
      <cc:Work
         rdf:about="">
        <dc:format>image/svg+xml</dc:format>
        <dc:type
           rdf:resource="http://purl.org/dc/dcmitype/StillImage" />
        <dc:title></dc:title>
      </cc:Work>
    </rdf:RDF>
  </metadata>
  <g
     inkscape:label="Layer 1"
     inkscape:groupmode="layer"
     id="layer1"
     transform="translate(0,-252.36227)">
    <path
       style="fill:#a0a0a0;stroke:none;stroke-width:1px;stroke-linecap:butt;stroke-linejoin:miter;stroke-opacity:1"
       d=""
       id="path5938"
       inkscape:connector-curvature="0" />
    <path
       style="fill:#a0a0a0;stroke:none;stroke-width:1px;stroke-linecap:butt;stroke-linejoin:miter;stroke-opacity:1"
       d=""
       id="path5940"
       inkscape:connector-curvature="0" />
    <path
       style="fill:#a0a0a0;stroke:none;stroke-width:1px;stroke-linecap:butt;stroke-linejoin:miter;stroke-opacity:1"
       d=""
       id="path5942"
       inkscape:connector-curvature="0" />
    <path
       style="fill:#a0a0a0;stroke:none;stroke-width:1px;stroke-linecap:butt;stroke-linejoin:miter;stroke-opacity:1"
       d=""
       id="path5944"
       inkscape:connector-curvature="0" />
    <path
       style="fill:#a0a0a0;stroke:none;stroke-width:1px;stroke-linecap:butt;stroke-linejoin:miter;stroke-opacity:1"
       d=""
       id="path5946"
       inkscape:connector-curvature="0" />
    <path
       style="fill:#a0a0a0;stroke:none;stroke-width:1px;stroke-linecap:butt;stroke-linejoin:miter;stroke-opacity:1"
       d=""
       id="path5948"
       inkscape:connector-curvature="0" />
    <g
       id="g4141"
       transform="matrix(0.47521813,0,0,0.48026902,524.00861,432.74606)">
      <g
         id="g4145"
         transform="translate(78.911135,-170.66095)"
         inkscape:transform-center-x="-96.400174">
        <path
           inkscape:connector-curvature="0"
           id="path5832"
           d="m -41.998717,464.88265 c -11.809769,-20.1163 -38.575794,-26.27437 -59.945253,-20.14488 -31.20952,5.99346 -63.07832,9.39288 -93.77593,17.54678 -5.92235,-2.3179 -12.10358,1.83536 -18.17172,1.84593 -135.30347,23.71939 -270.92982,45.74663 -405.96646,70.95867 -20.8536,5.73475 -38.15617,27.84167 -32.66995,49.92803 3.33359,20.62075 7.15204,41.15807 10.63018,61.75469 21.15967,-4.44586 45.75132,-8.47678 64.71459,4.73284 19.47663,17.22031 22.43763,45.88041 18.19465,70.19671 -5.57291,21.94189 -27.20252,36.30913 -48.85651,38.75039 -4.87039,0.95915 -9.77685,1.71585 -14.66626,2.56988 7.8316,23.89839 4.28531,51.4134 18.2919,73.2198 14.29533,16.96632 39.39287,19.61227 59.62944,13.73456 135.98506,-23.63231 272.09596,-46.55187 407.96403,-70.88044 6.93488,0.12781 14.64256,-3.00795 21.86384,-3.60532 27.964298,-5.07692 56.618184,-7.85584 84.0028,-15.89487 24.0987463,-8.37993 36.7288882,-36.87968 31.7846728,-61.04833 -4.3214145,-16.32937 -6.1587104,-33.2187 -9.3893477,-49.802 -21.2399831,4.40315 -45.9697931,8.53788 -64.8941821,-4.99311 -18.913072,-16.90128 -22.395927,-44.76399 -17.781492,-68.52481 6.00774,-20.4592 27.086722,-32.09531 47.056378,-34.89553 5.564958,-1.16565 11.185487,-2.03524 16.790647,-2.97996 -6.090712,-23.84145 -6.412624,-49.1247 -14.806023,-72.46903 z m -9.868828,7.05089 c 0.835696,1.79253 1.441672,3.69573 1.786851,5.69296 l 8.63967,49.99194 c -54.421697,9.40557 -69.038026,40.93301 -61.983856,81.74929 7.05414,40.81619 30.915616,62.78593 85.337309,53.38037 l 7.791171,45.06311 c 2.7614221,15.97782 -10.829667,39.55737 -32.133374,43.23923 l -93.919976,16.23084 c 2.87475,-0.49685 4.78871,-3.21042 4.29187,-6.08518 l -4.7463,-27.45824 c -0.49684,-2.87477 -3.21043,-4.78873 -6.08518,-4.29187 l -10.24133,1.7691 c -2.8748,0.49677 -4.79223,3.21211 -4.2954,6.08689 l 4.7463,27.45823 c 0.49686,2.87477 3.21042,4.78872 6.08519,4.29187 l -410.16112,70.8876 c -21.30345,3.68184 -40.67759,-6.21661 -43.43899,-22.19441 l -7.78767,-45.06482 c 54.42163,-9.40553 68.18772,-45.86096 61.13355,-86.67719 -7.05417,-40.81629 -30.89488,-62.65289 -85.31652,-53.24735 l -9.15104,-52.94773 c -2.76144,-15.97769 12.16544,-31.80415 33.46889,-35.48599 l 410.13923,-70.88353 c -2.86033,0.50865 -4.76444,3.21687 -4.26911,6.08293 l 4.74543,27.45645 c 0.49685,2.87478 3.2113,4.79053 6.08606,4.29368 l 10.24482,-1.77085 c 2.87475,-0.49686 4.78872,-3.21039 4.29188,-6.08517 l -4.7463,-27.45825 c -0.49577,-2.86862 -3.19974,-4.78144 -6.06766,-4.29597 l 93.90163,-16.22847 c 18.640764,-3.22157 35.804242,3.95245 41.653975,16.50053 z m -121.074465,54.07287 c -1.02061,-2.00169 -3.25356,-3.18938 -5.58928,-2.78563 l -10.24304,1.77 c -2.87475,0.49687 -4.79046,3.21133 -4.29366,6.08602 l 4.74631,27.4582 c 0.49684,2.87478 3.21042,4.78874 6.08519,4.2919 l 10.24482,-1.7708 c 2.87476,-0.49686 4.78874,-3.21041 4.29189,-6.0852 l -4.74455,-27.45911 c -0.0931,-0.53898 -0.26212,-1.04344 -0.49768,-1.50538 z m 8.90939,51.55517 c -1.02061,-2.0017 -3.25091,-3.18835 -5.58665,-2.78468 l -10.24482,1.7708 c -2.87481,0.49677 -4.78874,3.21042 -4.2919,6.0852 l 4.74454,27.45907 c 0.49685,2.87478 3.21044,4.78873 6.0852,4.29187 l 10.24659,-1.77164 c 2.87476,-0.49686 4.78696,-3.20957 4.29012,-6.08435 l -4.74452,-27.45907 c -0.0931,-0.53898 -0.2631,-1.04522 -0.49856,-1.5072 z m 8.90849,51.55779 c -1.0206,-2.0017 -3.24822,-3.19179 -5.58397,-2.78813 l -10.2466,1.77165 c -2.8748,0.49677 -4.78611,3.21132 -4.28928,6.0861 l 4.74369,27.45732 c 0.49684,2.87478 3.21129,4.7905 6.08605,4.29363 l 10.24307,-1.76994 c 2.87477,-0.49686 4.79048,-3.21127 4.29365,-6.08603 l -4.74455,-27.4591 c -0.0931,-0.53897 -0.26655,-1.04366 -0.50206,-1.5055 z m 8.91024,51.55696 c -1.02056,-2.0016 -3.24997,-3.19094 -5.58573,-2.78729 l -10.24307,1.76994 c -2.87477,0.49687 -4.79046,3.21126 -4.29365,6.08604 l 4.74806,27.45739 c 0.49685,2.87477 3.21044,4.78873 6.0852,4.29188 l 10.24392,-1.76819 c 2.87478,-0.49685 4.78964,-3.21302 4.2928,-6.0878 l -4.74806,-27.45737 c -0.093,-0.53903 -0.2639,-1.04267 -0.49947,-1.5046 z"
           style="fill:#ffffff;fill-opacity:1;stroke:none;stroke-width:5;stroke-miterlimit:4;stroke-dasharray:none;stroke-opacity:1"
           inkscape:transform-center-x="2.6217392"
           inkscape:transform-center-y="5.2434785" />
        <path
           inkscape:connector-curvature="0"
           style="fill:#ffffff;fill-opacity:1;stroke:none;stroke-width:5;stroke-miterlimit:4;stroke-dasharray:none;stroke-opacity:1"
           d="m -217.36719,105.70117 c -8.7082,0.0566 -18.31664,3.25212 -26.86133,9.59375 L -320.75,172.08594 c 2.34169,-1.72544 5.61659,-1.23416 7.35156,1.10351 l 16.60742,22.375 c 1.7387,2.34269 1.2528,5.62655 -1.08984,7.36524 l -8.34766,6.19726 c -2.34265,1.73869 -5.63045,1.25086 -7.36914,-1.09179 l -16.60546,-22.375 c -1.73343,-2.33561 -1.25413,-5.60883 1.07031,-7.35157 l -334.22461,248.05469 c -17.36035,12.88453 -23.55797,33.7374 -13.89453,46.75781 l 32.02343,43.14844 c 34.68085,-25.73954 61.27256,-25.99416 83.02344,-8.97656 54.46161,-10.96359 244.8427,-41.87637 376.72461,-62.00391 l 35.1582,-26.09375 c -2.34266,1.7387 -5.62654,1.2509 -7.36523,-1.09179 l -16.60742,-22.375 c -1.73869,-2.34269 -1.25289,-5.62855 1.08984,-7.36719 l 8.34766,-6.19531 c 2.34266,-1.7387 5.62851,-1.25285 7.36719,1.08984 l 16.60742,22.375 c 1.73868,2.34267 1.25276,5.62849 -1.08985,7.36719 l 76.537113,-56.80274 c 17.360568,-12.88465 18.868604,-40.05765 9.205078,-53.07812 l -27.255859,-36.72266 c -44.348702,32.9147 -75.548432,24.05054 -100.234372,-9.21094 -24.68603,-33.26153 -25.84089,-67.99157 18.50781,-100.90625 l -30.23438,-40.74023 c -1.20795,-1.62757 -2.60654,-3.05348 -4.16015,-4.27734 -4.75805,-3.74814 -10.98672,-5.60262 -17.75977,-5.5586 z m -69.06054,107.36719 c 1.09637,0.003 2.18141,0.35002 3.08789,1.01367 0.4184,0.3063 0.79706,0.67992 1.12304,1.11914 l 16.60742,22.37695 c 1.73868,2.34269 1.25086,5.62655 -1.09179,7.36524 l -8.34766,6.19726 c -2.34266,1.73868 -5.62851,1.2509 -7.36719,-1.09179 l -16.60742,-22.375 c -1.73861,-2.34262 -1.25086,-5.62849 1.0918,-7.36719 l 8.34766,-6.19531 c 0.95168,-0.70637 2.05987,-1.04625 3.15625,-1.04297 z m 31.18164,42.01367 c 1.09568,0.003 2.17946,0.35006 3.08593,1.01367 0.41835,0.30636 0.79901,0.67991 1.125,1.11914 l 16.60743,22.37696 c 1.7387,2.34267 1.25277,5.62652 -1.08985,7.36523 l -8.34961,6.19727 c -2.34266,1.73869 -5.62654,1.25283 -7.36523,-1.08985 l -16.60742,-22.37695 c -1.73869,-2.34269 -1.25286,-5.62855 1.08984,-7.36719 l 8.34961,-6.19531 c 0.95171,-0.70633 2.05861,-1.04632 3.1543,-1.04297 z m 31.17968,42.01367 c 1.09609,0.004 2.18142,0.35002 3.08789,1.01368 0.41832,0.30621 0.79901,0.67992 1.125,1.11914 l 16.60743,22.375 c 1.73868,2.34267 1.25282,5.63042 -1.08985,7.36914 l -8.34765,6.19336 c -2.34265,1.7387 -5.63045,1.25475 -7.36914,-1.0879 l -16.60547,-22.37695 c -1.73869,-2.34268 -1.25292,-5.62856 1.08984,-7.36719 l 8.34766,-6.19726 c 0.95172,-0.70634 2.05821,-1.04469 3.15429,-1.04102 z m 31.1836,42.01368 c 1.09607,0.004 2.17951,0.35007 3.08593,1.01367 0.4184,0.30629 0.79908,0.67983 1.125,1.11914 l 16.60743,22.375 c 1.7387,2.34268 1.25282,5.62848 -1.08985,7.36719 l -8.34961,6.19531 c -2.34267,1.7387 -5.62655,1.25284 -7.36523,-1.08985 l -16.60742,-22.375 c -1.73866,-2.3427 -1.25278,-5.62846 1.08984,-7.36718 l 8.34766,-6.19532 c 0.95171,-0.70633 2.06017,-1.04662 3.15625,-1.04296 z"
           id="path5828" />
      </g>
      <text
         xml:space="preserve"
         style="font-style:normal;font-variant:normal;font-weight:300;font-stretch:normal;font-size:137.30099487px;line-height:125%;font-family:'Helvetica Neue';-inkscape-font-specification:'Helvetica Neue, Light';text-align:start;letter-spacing:0px;word-spacing:0px;writing-mode:lr-tb;text-anchor:start;fill:#000000;fill-opacity:1;stroke:none;stroke-width:1px;stroke-linecap:butt;stroke-linejoin:miter;stroke-opacity:1"
         x="-607.01959"
         y="934.62079"
         id="text4149"
         sodipodi:linespacing="125%"
         transform="scale(1.0053002,0.99472774)"><tspan
           sodipodi:role="line"
           x="-607.01959"
           y="934.62079"
           id="tspan4153"
           style="font-style:normal;font-variant:normal;font-weight:300;font-stretch:normal;font-size:137.30099487px;line-height:125%;font-family:'Helvetica Neue';-inkscape-font-specification:'Helvetica Neue, Light';text-align:start;writing-mode:lr-tb;text-anchor:start;fill:#ffffff">Buy Tickets</tspan></text>
    </g>
  </g>
</svg>
